# xmcd CD database file
#
# Track frame offsets:
#	150
#	13723
#	28762
#	41847
#	55182
#	68557
#	83240
#	95693
#	110130
#	125391
#	140168
#	152815
#	164024
#	178985
#	193610
#	207803
#	221724
#	235529
#	251042
#	262423
#
# Disc length: 3699 seconds
#
# Revision: 0
# Processed by: cddbd v1.5.1PL0 Copyright (c) Steve Scherf et al.
# Submitted via: CDex 1.51
#
DISCID=340e7114
DTITLE=Frank Sinatra - You Make Me Feel So Young
DYEAR=2002
DGENRE=Jazz
TTITLE0=You Make Me Feel So Young
TTITLE1=Poka Dots and Moonbeams
TTITLE2=The Lamplighter's Serenade
TTITLE3=All Or Nothing At All (Harry James and His Orchestra
TTITLE4=Whispering
TTITLE5=Everything Happens To Me
TTITLE6=Poor You
TTITLE7=Is This The Beginning Of The End
TTITLE8=Say It
TTITLE9=I Tried
TTITLE10=Be Careful It's My Heart
TTITLE11=It's A Lovely Day Tommorow
TTITLE12=Embraceable You
TTITLE13=I Don't Stand A Ghost Of A Chance With You
TTITLE14=Sweet Lorriane
TTITLE15=April Played A Fiddle
TTITLE16=You're Breaking My Heart All Over Again
TTITLE17=Indian Summer (Tommy Dorsey and His Orchestra)
TTITLE18=The Last Call For Love
TTITLE19=East Of The Sun (And West Of The Moon)
EXTD=YEAR: 2002
EXTT0=
EXTT1=
EXTT2=
EXTT3=
EXTT4=
EXTT5=
EXTT6=
EXTT7=
EXTT8=
EXTT9=
EXTT10=
EXTT11=
EXTT12=
EXTT13=
EXTT14=
EXTT15=
EXTT16=
EXTT17=
EXTT18=
EXTT19=
PLAYORDER=
